# xmcd
#
# Track frame offsets: 
#        150
#        12072
#        25722
#        44220
#        56832
#        67440
#        78962
#        93727
#        97545
#        113242
#        132782
#        146282
#        167542
#        178802
#
# Disc length: 2630 seconds
#
# Revision: 0
# Processed by: cddbd v1.5.1PL0 Copyright (c) Steve Scherf et al.
# Submitted via: ExactAudioCopy v0.95a5
#
DISCID=b90a440e
DTITLE=Frank Edwards  - Done Some Travelin'
DYEAR=1993
DGENRE=Blues
TTITLE0=Throw Your Time Away
TTITLE1=Good Morning Little School Girl
TTITLE2=Goin' Back And Get Her
TTITLE3=She Is Mine
TTITLE4=Mean Old Frisco
TTITLE5=Key To The Highway
TTITLE6=I Know He Shed The Blood
TTITLE7=Slide Interlude
TTITLE8=When The Saints Go Marching In
TTITLE9=Chicken Raid
TTITLE10=Mini Dress Wearer
TTITLE11=Alcatraz Blues
TTITLE12=Love My Baby
TTITLE13=Put Your Arms Around Me
EXTD=
EXTT0=
EXTT1=
EXTT2=
EXTT3=
EXTT4=
EXTT5=
EXTT6=
EXTT7=
EXTT8=
EXTT9=
EXTT10=
EXTT11=
EXTT12=
EXTT13=
PLAYORDER=
